<?xml version="1.0" encoding="utf-8"?>
<!-- Generator: Adobe Illustrator 15.0.2, SVG Export Plug-In . SVG Version: 6.00 Build 0)  -->
<!DOCTYPE svg PUBLIC "-//W3C//DTD SVG 1.1//EN" "http://www.w3.org/Graphics/SVG/1.1/DTD/svg11.dtd">
<svg version="1.1" id="Vrstva_1" xmlns="http://www.w3.org/2000/svg" xmlns:xlink="http://www.w3.org/1999/xlink" x="0px" y="0px"
	 width="2205px" height="965px" viewBox="0 123.013 2205 965" enable-background="new 0 123.013 2205 965" xml:space="preserve">
<rect x="0" y="123.013" fill="none" width="2205" height="964.999"/>
<path fill="#000050" d="M665.116,801.402H299.492c-6.809,0-12.327-5.518-12.327-12.324V423.45c0-6.807,5.519-12.326,12.327-12.326
	h365.624c6.809,0,12.326,5.519,12.326,12.326v365.626C677.443,795.885,671.925,801.402,665.116,801.402"/>
<g>
	<g>
		<defs>
			<rect id="SVGID_1_" x="0" y="123.013" width="2205" height="964.999"/>
		</defs>
		<clipPath id="SVGID_2_">
			<use xlink:href="#SVGID_1_"  overflow="visible"/>
		</clipPath>
		<path clip-path="url(#SVGID_2_)" fill="#FFFFFF" d="M618.962,750.625H345.647c-4.256,0-7.704-3.449-7.704-7.703V469.606
			c0-4.254,3.448-7.704,7.704-7.704h273.314c4.255,0,7.703,3.45,7.703,7.704v273.315
			C626.666,747.176,623.217,750.625,618.962,750.625"/>
	</g>
</g>
<g>
	<g>
		<defs>
			<rect id="SVGID_3_" x="0" y="123.013" width="2205" height="964.999"/>
		</defs>
		<clipPath id="SVGID_4_">
			<use xlink:href="#SVGID_3_"  overflow="visible"/>
		</clipPath>
		<path clip-path="url(#SVGID_4_)" fill="#F00014" d="M619.132,750.797H345.649c-4.257,0-7.706-3.449-7.706-7.705V469.608
			c0-4.256,3.449-7.706,7.706-7.706h273.482c4.256,0,7.706,3.45,7.706,7.706v273.483
			C626.838,747.348,623.388,750.797,619.132,750.797"/>
	</g>
</g>
<g>
	<g>
		<defs>
			<rect id="SVGID_5_" x="0" y="123.013" width="2205" height="964.999"/>
		</defs>
		<clipPath id="SVGID_6_">
			<use xlink:href="#SVGID_5_"  overflow="visible"/>
		</clipPath>
		<path clip-path="url(#SVGID_6_)" fill="#FFFFFF" d="M626.838,503.002c-136.76,0-247.624,111.037-247.624,247.795h239.92
			c4.255,0,7.704-3.375,7.704-7.875V503.002z"/>
	</g>
</g>
<g>
	<g>
		<defs>
			<rect id="SVGID_7_" x="0" y="123.013" width="2205" height="964.999"/>
		</defs>
		<clipPath id="SVGID_8_">
			<use xlink:href="#SVGID_7_"  overflow="visible"/>
		</clipPath>
		<path clip-path="url(#SVGID_8_)" fill="#F00014" d="M564.106,695.77h-53.377c-4.255,0-7.704-3.449-7.704-7.703v-53.377
			c0-4.254,3.449-7.703,7.704-7.703h53.377c4.255,0,7.703,3.449,7.703,7.703v53.377C571.811,692.32,568.361,695.77,564.106,695.77"
			/>
	</g>
</g>
<g>
	<g>
		<defs>
			<rect id="SVGID_9_" x="0" y="123.013" width="2205" height="964.999"/>
		</defs>
		<clipPath id="SVGID_10_">
			<use xlink:href="#SVGID_9_"  overflow="visible"/>
		</clipPath>
		<path clip-path="url(#SVGID_10_)" fill="#000050" d="M962.021,458.684c41.401,0,71.332,13.114,99.207,38.122
			c3.687,3.28,3.687,8.197,0.406,11.478l-25,25.828c-2.873,3.279-6.977,3.279-10.249,0c-17.225-15.166-40.181-24.184-63.137-24.184
			c-52.473,0-91.416,43.859-91.416,95.518c0,51.236,39.358,94.697,91.832,94.697c24.592,0,45.496-9.436,62.721-23.371
			c3.272-2.865,7.783-2.459,10.249,0l25.414,26.236c3.28,2.873,2.459,8.197-0.414,11.07c-27.873,27.051-63.129,39.766-99.613,39.766
			c-81.99,0-147.992-65.188-147.992-147.168C814.028,524.684,880.03,458.684,962.021,458.684"/>
	</g>
</g>
<g>
	<g>
		<defs>
			<rect id="SVGID_11_" x="0" y="123.013" width="2205" height="964.999"/>
		</defs>
		<clipPath id="SVGID_12_">
			<use xlink:href="#SVGID_11_"  overflow="visible"/>
		</clipPath>
		<path clip-path="url(#SVGID_12_)" fill="#000050" d="M1132.955,470.569c0-4.095,3.28-7.791,7.791-7.791h166.846
			c4.511,0,7.79,3.696,7.79,7.791v33.619c0,4.095-3.279,7.79-7.79,7.79h-121.35v67.225h101.259c4.104,0,7.791,3.695,7.791,7.791
			v34.025c0,4.51-3.688,7.789-7.791,7.789h-101.259v71.74h121.35c4.511,0,7.79,3.688,7.79,7.791v33.611
			c0,4.104-3.279,7.791-7.79,7.791h-166.846c-4.511,0-7.791-3.688-7.791-7.791V470.569z"/>
	</g>
</g>
<g>
	<g>
		<defs>
			<rect id="SVGID_13_" x="0" y="123.013" width="2205" height="964.999"/>
		</defs>
		<clipPath id="SVGID_14_">
			<use xlink:href="#SVGID_13_"  overflow="visible"/>
		</clipPath>
		<path clip-path="url(#SVGID_14_)" fill="#000050" d="M1384.166,470.569c0-4.095,3.279-7.791,7.375-7.791h97.155
			c79.124,0,143.89,64.364,143.89,143.075c0,79.531-64.766,143.891-143.89,143.891h-97.155c-4.096,0-7.375-3.688-7.375-7.791
			V470.569z M1483.78,699.729c53.295,0,92.238-40.174,92.238-93.875c0-53.295-38.943-93.469-92.238-93.469h-46.733v187.344H1483.78z
			"/>
	</g>
</g>
<g>
	<g>
		<defs>
			<rect id="SVGID_15_" x="0" y="123.013" width="2205" height="964.999"/>
		</defs>
		<clipPath id="SVGID_16_">
			<use xlink:href="#SVGID_15_"  overflow="visible"/>
		</clipPath>
		<path clip-path="url(#SVGID_16_)" fill="#000050" d="M1787.365,462.782c2.866,0.009,5.47,1.684,6.663,4.291l124.771,272.015
			c2.458,5.322-0.813,10.654-6.97,10.654h-35.662c-6.146,0-9.021-2.459-11.894-8.197l-20.083-44.275h-88.635
			c0,0,15.745-36.029,17.875-40.885c2.129-4.855,7.104-4.619,7.104-4.619h43.566l-40.995-90.188h-1.229l-40.173,90.188
			l-20.092,45.504l-20.082,44.275c-1.646,4.096-5.332,8.199-11.893,8.199h-35.664c-6.146,0-9.427-5.332-6.969-10.656
			l125.901-271.977c1.229-2.658,3.894-4.357,6.821-4.35L1787.365,462.782z"/>
	</g>
</g>
</svg>
