<?xml version="1.0" encoding="UTF-8"?>
<svg id="Layer_2" xmlns="http://www.w3.org/2000/svg" viewBox="0 0 171.5654 70"><g id="Components"><g id="_29fa0524-2f64-4c19-ab65-5159eec60e8c_1"><path d="m88.223,37.2091c0,.6946-.184,1.3083-.552,1.8405-.368.5328-.8706.9443-1.509,1.2348-.6378.2908-1.3528.4362-2.1449.4362-.8391,0-1.638-.1648-2.3968-.4939-.7588-.3291-1.4522-.8104-2.0795-1.4432l1.6818-1.7365c.3087.3038.6359.5557.9805.7563.3445.2007.6816.3473,1.0113.4399.3291.0926.6322.1389.9101.1389.2834,0,.5378-.0488.7644-.1466.2266-.0976.4038-.2315.5322-.4013.129-.1698.1933-.3522.1933-.548,0-.247-.0796-.4501-.2389-.6097-.1599-.1593-.3643-.288-.6137-.3859-.2501-.0976-.5804-.2007-.9916-.3087-.0568-.0102-.1111-.0232-.1624-.0386s-.1056-.0309-.1624-.0463c-.0099-.0049-.0204-.0077-.0309-.0077-.0099,0-.0204-.0025-.0309-.0077-.6322-.1698-1.1922-.3831-1.6781-.6406-.4865-.2572-.8854-.602-1.1965-1.0342s-.4668-.9647-.4668-1.5976c0-.6174.1661-1.1601.4976-1.6284.3322-.468.794-.8323,1.3855-1.0919.5915-.2599,1.2682-.3899,2.0301-.3899.6631,0,1.3126.108,1.9486.3241.6353.2161,1.228.5609,1.7788,1.0342l-1.5281,1.667c-.3704-.2673-.7502-.4745-1.1385-.6214-.3884-.1463-.7421-.2198-1.0607-.2198-.242,0-.4631.0361-.6643.108-.2.0722-.3587.1763-.4742.3124-.1161.1364-.1741.3025-.1741.4979,0,.2059.0784.3819.2359.5288.1568.1463.3575.2698.602.3704.2439.1.5618.2044.9527.3124.0519.0154.1957.054.4322.1158.0161.0052.034.0114.0543.0194.0204.0074.0383.0142.0543.0191.5964.1596,1.1225.3513,1.5781.5748.455.2241.8477.5547,1.1768.9919.3291.4374.4939.9956.4939,1.6747Zm3.7885-7.4939v10.797h-2.516v-10.797h2.516Zm1.8936,10.797v-10.797h2.516v8.4277h4.5608v2.3693h-7.0768Zm17.353-10.797v10.797h-2.377l-4.3602-6.4526v6.4526h-2.4931v-10.797h2.377l4.3682,6.3809v-6.3809h2.4851Zm4.4201,0v10.797h-2.516v-10.797h2.516Zm8.6061,2.8015c-.2365-.1439-.4853-.2559-.7446-.3359-.2599-.0796-.5365-.1195-.8298-.1195-.5402,0-1.0422.1324-1.5053.3973-.4631.2652-.8323.6304-1.107,1.0959-.2754.4658-.4131.9842-.4131,1.5553s.1377,1.0882.4131,1.5513c.2747.4631.6452.8286,1.1113,1.0959.4655.2676.9656.4013,1.5009.4013.2933,0,.5723-.0411.8372-.1235.2649-.0821.5137-.1954.7446-.3396l1.5287,2.022c-.4322.3192-.9125.5662-1.4398.7409-.5273.1747-1.0842.2624-1.6707.2624-1.0138,0-1.9498-.2442-2.8092-.7332-.8594-.4887-1.5423-1.1601-2.0492-2.0143-.5069-.8539-.76-1.8084-.76-2.8633s.2531-2.0091.76-2.8633c.5069-.8539,1.1898-1.5241,2.0492-2.0106.8594-.4859,1.7954-.7292,2.8092-.7292.5816,0,1.1268.0824,1.6361.247.5094.1648.9749.4013,1.3966.71l-1.4583,2.0529Zm7.1641,13.0043v10.797h-2.377l-4.3602-6.4526v6.4526h-2.4931v-10.797h2.377l4.3682,6.3809v-6.3809h2.4851Zm-44.3213,10.797h2.5542l-3.5267-10.797h-3.1488l-3.5575,10.797h2.5623l.5254-1.6902h4.0685l.5226,1.6902Zm-3.9169-3.8588l1.3657-4.3926,1.358,4.3926h-2.7237Zm27.4666,3.8588h2.5542l-3.5267-10.797h-3.1488l-3.5575,10.797h2.5623l.5254-1.6902h4.0685l.5226,1.6902Zm-3.9169-3.8588l1.3657-4.3926,1.358,4.3926h-2.7237Zm7.3347,3.8588v-10.797h2.516v8.4277h4.5608v2.3693h-7.0768Zm21.7737-10.797v10.797h-2.516v-10.797h2.516Zm8.6055,2.8015c-.2365-.1439-.4853-.2559-.7446-.3359-.2599-.0796-.5365-.1195-.8298-.1195-.5402,0-1.0422.1324-1.5053.3973-.4631.2652-.8323.6304-1.107,1.0959-.2754.4658-.4131.9842-.4131,1.5553s.1377,1.0882.4131,1.5513c.2747.4631.6452.8286,1.1113,1.0959.4655.2676.9656.4013,1.5009.4013.2933,0,.5723-.0411.8372-.1235.2649-.0821.5137-.1954.7446-.3396l1.5287,2.022c-.4322.3192-.9125.5662-1.4398.7409-.5273.1747-1.0842.2624-1.6707.2624-1.0138,0-1.9498-.2442-2.8092-.7332-.8594-.4887-1.5423-1.1601-2.0492-2.0143-.5069-.8539-.76-1.8084-.76-2.8633s.2531-2.0091.76-2.8633c.5069-.8539,1.1898-1.5241,2.0492-2.0106.8594-.4859,1.7954-.7292,2.8092-.7292.5816,0,1.1268.0824,1.6361.247.5094.1648.9749.4013,1.3966.71l-1.4583,2.0529Zm-42.2045-.2277c-.455-.8207-1.0928-1.4548-1.9137-1.9024-.8209-.4475-1.7584-.6714-2.8132-.6714h-3.0528v10.797h3.0528c1.0549,0,1.9924-.2239,2.8132-.6715.8209-.4475,1.4586-1.0804,1.9137-1.8985.4557-.818.6832-1.7596.6832-2.8246s-.2275-2.0078-.6832-2.8286Zm-2.2032,4.4029c-.2519.458-.5992.8142-1.0419,1.0689-.4424.2548-.944.3821-1.5049.3821h-.514v-6.0584h.514c.5557,0,1.0549.1286,1.4975.3858.4424.2574.7909.6163,1.0456,1.0767.2547.4604.3819.9866.3819,1.5781,0,.5865-.126,1.1089-.3782,1.5667Zm-3.1458-36.3348h-4.4991v2.0066h4.3447v2.0915h-4.3447v2.1918h4.4991v2.2536h-7.0151v-10.797h7.0151v2.2536Zm14.0142-2.2536v10.797h-2.516v-10.797h2.516Zm1.0039,2.3925v-2.3925h8.7364v2.3925h-3.1179v8.4046h-2.5079v-8.4046h-3.1105Zm16.7622-.1389h-4.4991v2.0066h4.3447v2.0915h-4.3447v2.1918h4.4991v2.2536h-7.0151v-10.797h7.0151v2.2536Zm1.5991,8.5435v-10.797h2.516v8.4277h4.5608v2.3693h-7.0768Zm16.3868-3.3032c0,.6946-.184,1.3083-.552,1.8405-.368.5328-.8706.9443-1.509,1.2348-.6378.2908-1.3528.4362-2.1449.4362-.8391,0-1.638-.1648-2.3968-.4939-.7588-.3291-1.4522-.8104-2.0795-1.4432l1.6818-1.7365c.3087.3038.6359.5557.9805.7563.3445.2007.6816.3473,1.0113.4399.3291.0926.6322.1389.9101.1389.2834,0,.5378-.0488.7644-.1466.2266-.0976.4038-.2315.5322-.4013.129-.1698.1933-.3522.1933-.548,0-.247-.0796-.4501-.2389-.6097-.1599-.1593-.3643-.288-.6137-.3859-.2501-.0976-.5804-.2007-.9916-.3087-.0568-.0102-.1111-.0232-.1624-.0386s-.1056-.0309-.1624-.0463c-.0099-.0049-.0204-.0077-.0309-.0077-.0099,0-.0204-.0025-.0309-.0077-.6322-.1698-1.1922-.3831-1.6781-.6406-.4865-.2572-.8854-.602-1.1965-1.0342-.3112-.4322-.4668-.9647-.4668-1.5976,0-.6174.1661-1.1601.4976-1.6284.3322-.468.794-.8323,1.3855-1.0919.5915-.2599,1.2682-.3899,2.0301-.3899.6631,0,1.3126.108,1.9486.3241.6353.2161,1.228.5609,1.7788,1.0342l-1.5281,1.667c-.3704-.2673-.7502-.4745-1.1385-.6214-.3884-.1463-.7421-.2198-1.0607-.2198-.242,0-.4631.0361-.6643.108-.2.0722-.3587.1763-.4742.3124-.1161.1364-.1741.3025-.1741.4979,0,.2059.0784.3819.2359.5288.1568.1463.3575.2698.602.3704.2439.1.5618.2044.9527.3124.0519.0154.1957.054.4322.1158.0161.0052.034.0114.0543.0194.0204.0074.0383.0142.0543.0191.5964.1596,1.1225.3513,1.5781.5748.455.2241.8477.5547,1.1768.9919.3291.4374.4939.9956.4939,1.6747Zm.4803-5.1014v-2.3925h8.7364v2.3925h-3.1179v8.4046h-2.5079v-8.4046h-3.1105Zm13.0478,8.4046l-3.6502-10.797h2.6858l2.4891,7.8286,2.4502-7.8286h2.6777l-3.5501,10.797h-3.1025Zm10.0385-10.797v10.797h-2.516v-10.797h2.516Zm-63.954,2.5738c-.455-.8207-1.0928-1.4548-1.9137-1.9024-.8209-.4475-1.7584-.6714-2.8132-.6714h-3.0528v10.797h3.0528c1.0549,0,1.9924-.2239,2.8132-.6715.8209-.4475,1.4586-1.0804,1.9137-1.8985.4557-.818.6832-1.7596.6832-2.8246s-.2275-2.0078-.6832-2.8286Zm-2.2032,4.4029c-.2519.458-.5992.8142-1.0419,1.0689-.4424.2548-.944.3821-1.5049.3821h-.514v-6.0584h.514c.5557,0,1.0549.1286,1.4975.3858.4424.2574.7909.6163,1.0456,1.0767.2547.4604.3819.9866.3819,1.5781,0,.5865-.126,1.1089-.3782,1.5667Zm-15.5801,3.8203l-2.1109-4.1165c.5656-.291,1.0156-.6943,1.3432-1.2165.3424-.5452.5134-1.1834.5134-1.9139s-.171-1.3634-.5134-1.8987c-.342-.535-.8128-.9441-1.4123-1.2271-.5995-.2829-1.2774-.4244-2.0335-.4244h-4.0132v10.7971h2.5157v-3.635h1.1666l1.7587,3.635h2.7858Zm-5.7111-8.5358h1.5207c.2778,0,.5285.0541.7523.1621.2238.108.3976.2624.5208.4631.1238.2005.1852.4322.1852.6945,0,.2727-.0642.5094-.1926.71-.1287.2007-.3038.3525-.5251.4555-.221.103-.4683.1542-.7406.1542h-1.5207v-2.6394Zm2.7091-6.1895l-1.5513,1.3905-1.5435-1.3905-1.1848,1.0176,1.9331,2.0617h1.5932l1.944-2.0617-1.1907-1.0176Zm22.671,32.0306l-1.6308,1.8213,1.4258,1.2256,2.7344-3.0469h-2.5293Zm60.8511-31.6138l-1.6308,1.8213,1.4258,1.2256,2.7344-3.0469h-2.5293Z" style="fill:#09417a; stroke-width:0px;"/><path d="m26.3848,1.0725c-1.8546.4728-3.652,1.0904-5.375,1.8451-.2058,2.0833-.5276,4.8075-.8775,6.338-2.0422,8.9282-9.6639,15.3964-18.7588,16.0791h0c-.4879,1.6993-.8503,3.4515-1.0768,5.246l-.0011-.0002c11.9855-.2344,22.2243-8.4814,24.8972-20.1675.7051-3.0829,1.1921-9.3405,1.1921-9.3405m18.6,9.3405c2.6729,11.6861,12.9117,19.9331,24.8973,20.1675l-.0012.0002c-.2264-1.7945-.5889-3.5467-1.0768-5.246h-.0001c-9.0949-.6827-16.7166-7.1509-18.7588-16.0791-.3499-1.5305-.6717-4.2547-.8774-6.338-1.723-.7547-3.5205-1.3723-5.375-1.8451,0,0,.4869,6.2576,1.192,9.3405m-12.084,29.9813l-1.0064,29.6057c-3.648-.3282-7.137-1.2068-10.3765-2.5669l2.7567-27.0388h8.6262Zm-13.9884,25.808c-1.8578-.9797-3.6172-2.0945-5.2613-3.3657-.8795-7.2265-5.4395-13.3336-11.7488-16.375-.6671-1.944-1.178-3.961-1.4966-6.0424,10.6989,3.2587,18.8497,13.4288,18.5067,25.7831m14.3209-35.5827l1.0406-30.6196c-2.0288.0464-4.0156.259-5.9451.6357l-3.0571,29.9839h7.9616Zm4.0434,9.7747l1.0064,29.6057c3.648-.3282,7.137-1.2068,10.3766-2.5669l-2.7568-27.0388h-8.6262Zm7.6294-9.7747L41.849.6357c-1.9294-.3767-3.9166-.5894-5.9451-.6357l1.0407,30.6196h7.9615Zm6.3591,35.5827c1.8578-.9797,3.6171-2.0945,5.2613-3.3657.8795-7.2265,5.4394-13.3336,11.7488-16.375.667-1.944,1.178-3.961,1.4966-6.0424-10.6989,3.2587-18.8497,13.4288-18.5067,25.7831m18.9123-31.135c0,.8588-.0417,1.7074-.1022,2.5508H.1025c-.0608-.8434-.1025-1.692-.1025-2.5508s.0417-1.7075.1025-2.5509h69.9728c.0605.8434.1022,1.692.1022,2.5509" style="fill:#0096dc; stroke-width:0px;"/></g></g></svg>